<?xml version="1.0" encoding="iso-8859-1"?>
<!-- Uploaded to: SVG Repo, www.svgrepo.com, Generator: SVG Repo Mixer Tools -->
<svg height="800px" width="800px" version="1.1" id="Layer_1" xmlns="http://www.w3.org/2000/svg" xmlns:xlink="http://www.w3.org/1999/xlink" 
	 viewBox="0 0 512 512" xml:space="preserve">
<circle style="fill:#00CC96;" cx="256" cy="256" r="256"/>
<path style="fill:#07B587;" d="M508.002,300.758c-19.88,112.728-113.506,199.913-229.123,210.131L151.157,383.167l171.926-267.44
	l184.92,184.92L508.002,300.758L508.002,300.758L508.002,300.758z"/>
<path style="fill:#006775;" d="M304.758,192.36v-1.111c9.885,9.552,12.55,12.44,20.769,25.434
	c8.218,12.883,32.985,18.992,37.206,1.222c5.552-1.222,19.769-5.887,14.438-20.213c-5.553-14.771-39.317-16.992-50.756-16.215
	c-10.663-3.887-21.102-6.22-26.989-7.331c7.442-22.102,23.768-56.975,23.768-56.975s0-13.216-12.883-11.772
	c-12.884,1.555-24.656,20.658-24.656,20.658s-2.221-25.1-17.659-24.323c-12.55,0.555-16.326,13.771-19.103,23.545
	c0,0-8.441-25.767-23.212-23.545c-14.771,2.221-13.66,22.879-13.66,22.879s-13.217-24.989-24.656-22.435
	c-11.439,2.666-13.66,4.443-15.104,15.882c0,0,25.434,47.202,25.767,57.864c0.111,1.888,0.111,4.221,0.111,6.664h-3.11
	c-4.332,0-7.775,3.554-7.775,7.775v2.221c0,4.332,3.554,7.775,7.775,7.775h1.666c-0.889,4.886-2.332,9.551-4.554,13.216
	l-5.884,0.555c-18.325,1.888-45.506,35.621-47.646,56.086c-1.971,18.84-4.554,75.634-4.554,75.634
	c-1.888,30.21,24.766,49.201,54.976,49.201h59.752h59.752c30.209,0,56.864-18.992,54.976-49.201l-4.554-75.634
	c1.555-5.109-20.991-36.873-25.211-40.538c-6.331-5.33-20.547-12.883-24.878-12.994l-4.332-0.111
	c-2.443-4.109-5.442-10.106-7.219-16.437C301.425,199.913,304.758,196.581,304.758,192.36z M370.283,207.243
	c-2.887,5.33-9.218-2.777-11.55-4.998l-20.769-14.66C347.182,186.253,376.947,195.027,370.283,207.243z M313.864,187.474
	c0,0,0.012,0.019,0.032,0.051c2.321,0.829,34.687,12.568,36.508,23.384c1.888,11.328-6.664,11.661-17.104,1.333
	c-10.089-9.982-18.829-23.8-19.404-24.716c-0.086-0.031-0.143-0.051-0.143-0.051L313.864,187.474L313.864,187.474z"/>
<g>
	<path style="fill:#FFD630;" d="M221.792,264.996c-4.665-1.999-11.883-3.887-21.213-3.998v-9.219h-11.661v10.217
		c-15.104,3.11-23.768,12.439-23.768,24.101c0,10.995,9.108,18.992,23.768,24.656v25.323c-7.997-0.111-16.104-2.221-21.213-4.887
		l-3.776,13.994c4.776,2.443,14.882,4.887,24.878,4.887h0.111v9.219h11.661v-10.217c16.104-3.11,25.1-12.772,25.1-25.1
		c0-11.439-7.219-19.436-23.434-25.545c-0.555-0.222-1.111-0.444-1.555-0.666v-22.768c7.886,0.111,13.771,2.221,17.104,3.665
		l4.11-13.66L221.792,264.996L221.792,264.996z M200.579,316.307c3.665,2.555,5.442,5.331,5.442,8.997s-1.888,6.664-5.442,8.552
		V316.307z M188.918,291.985c-2.888-2.11-4.11-4.332-4.11-7.442c0-2.555,1.333-5.109,4.11-6.997V291.985z"/>
	<path style="fill:#FFD630;" d="M319.083,274.104c18.325-0.777,33.874,13.327,34.651,31.652s-13.327,33.874-31.652,34.651
		s-33.874-13.327-34.651-31.652C286.653,290.43,300.758,274.881,319.083,274.104z M317.639,241.339
		c18.214-0.777,34.985,5.776,47.535,17.215c12.439,11.439,20.547,27.544,21.435,45.758c0.777,18.214-5.776,34.985-17.215,47.535
		c-11.439,12.439-27.544,20.547-45.758,21.435c-18.214,0.777-34.985-5.776-47.535-17.215
		c-12.439-11.439-20.547-27.544-21.435-45.758c-0.777-18.214,5.776-34.985,17.215-47.535
		C283.321,250.336,299.425,242.228,317.639,241.339z M354.291,270.438c-9.441-8.663-22.102-13.66-35.873-12.994
		c-13.771,0.666-25.989,6.775-34.651,16.215s-13.66,22.102-12.994,35.873c0.666,13.771,6.775,25.989,16.215,34.651
		c9.441,8.663,22.102,13.66,35.873,12.994c13.771-0.666,25.989-6.775,34.651-16.215c8.663-9.441,13.66-22.102,12.994-35.873
		C369.84,291.318,363.731,279.101,354.291,270.438z"/>
</g>
<path style="fill:#FDFDFD;" d="M400.381,410.044l-40.427-39.872l-14.327,14.438l-28.21-78.855l79.299,27.1l-14.327,14.438
	l40.427,39.872l-22.435,22.768L400.381,410.044L400.381,410.044z"/>
<path style="fill:#EBECEC;" d="M317.417,305.867l79.299,27.1l-14.327,14.438l40.427,39.872l-11.439,11.661L317.417,305.867z"/>
</svg>