<?xml version="1.0" encoding="iso-8859-1"?>
<!-- Uploaded to: SVG Repo, www.svgrepo.com, Generator: SVG Repo Mixer Tools -->
<svg version="1.1" id="Layer_1" xmlns="http://www.w3.org/2000/svg" xmlns:xlink="http://www.w3.org/1999/xlink" 
	 viewBox="0 0 512 512" xml:space="preserve">
<circle style="fill:#00447D;" cx="256" cy="256" r="256"/>
<path style="fill:#062964;" d="M510.316,285.346L369.778,144.808l-3.039,2.994l-25.405-25.405l-47.757,97.482l-97.482-97.482
	l-21.835,71.973l-32.037,177.993l138.449,138.449C400.796,499.324,496.676,404.83,510.316,285.346z"/>
<rect x="142.222" y="144.808" style="fill:#FFFFFF;" width="227.556" height="227.556"/>
<rect x="256" y="144.808" style="fill:#D0D1D3;" width="113.778" height="227.556"/>
<rect x="142.222" y="144.808" style="fill:#FF764C;" width="227.556" height="56.889"/>
<rect x="256" y="144.808" style="fill:#FF450C;" width="113.778" height="56.889"/>
<rect x="173.684" y="122.397" style="fill:#FFFFFF;" width="22.411" height="44.822"/>
<rect x="318.923" y="122.397" style="fill:#D0D1D3;" width="22.411" height="44.822"/>
<circle style="fill:#FFCE9B;" cx="256" cy="283.582" r="56.889"/>
<path style="fill:#FFB181;" d="M312.889,283.582c0-31.418-25.469-56.889-56.889-56.889v113.778
	C287.42,340.471,312.889,315.001,312.889,283.582z"/>
</svg>